<svg width="16" height="16" viewBox="0 0 16 16" fill="none" xmlns="http://www.w3.org/2000/svg">
<g opacity="0.6">
<path fill-rule="evenodd" clip-rule="evenodd" d="M15.5 12C15.5 12.5523 15.0523 13 14.5 13L1.5 13C0.947715 13 0.5 12.5523 0.5 12L0.5 5C0.5 4.44771 0.947715 4 1.5 4L14.5 4C15.0523 4 15.5 4.44771 15.5 5L15.5 12ZM1.5 12L14.5 12V5L1.5 5L1.5 12Z" fill="black"/>
<path fill-rule="evenodd" clip-rule="evenodd" d="M8 6.5C6.89543 6.5 6 7.39543 6 8.5C6 9.60457 6.89543 10.5 8 10.5C9.10457 10.5 10 9.60457 10 8.5C10 7.39543 9.10457 6.5 8 6.5ZM5 8.5C5 6.84315 6.34315 5.5 8 5.5C9.65685 5.5 11 6.84315 11 8.5C11 10.1569 9.65685 11.5 8 11.5C6.34315 11.5 5 10.1569 5 8.5Z" fill="black"/>
<path fill-rule="evenodd" clip-rule="evenodd" d="M12.5 4C12.7761 4 13 4.22386 13 4.5C13 5.03043 13.2107 5.53914 13.5858 5.91421C13.9609 6.28929 14.4696 6.5 15 6.5C15.2761 6.5 15.5 6.72386 15.5 7C15.5 7.27614 15.2761 7.5 15 7.5C14.2044 7.5 13.4413 7.18393 12.8787 6.62132C12.3161 6.05871 12 5.29565 12 4.5C12 4.22386 12.2239 4 12.5 4Z" fill="black"/>
<path fill-rule="evenodd" clip-rule="evenodd" d="M3.5 4C3.77614 4 4 4.22386 4 4.5C4 4.89397 3.9224 5.28407 3.77164 5.64805C3.62087 6.01203 3.3999 6.34274 3.12132 6.62132C2.84274 6.8999 2.51203 7.12087 2.14805 7.27164C1.78407 7.4224 1.39397 7.5 1 7.5C0.723858 7.5 0.5 7.27614 0.5 7C0.5 6.72386 0.723858 6.5 1 6.5C1.26264 6.5 1.52272 6.44827 1.76537 6.34776C2.00802 6.24725 2.2285 6.09993 2.41421 5.91421C2.59993 5.7285 2.74725 5.50802 2.84776 5.26537C2.94827 5.02272 3 4.76264 3 4.5C3 4.22386 3.22386 4 3.5 4Z" fill="black"/>
<path fill-rule="evenodd" clip-rule="evenodd" d="M12.8787 10.3787C13.4413 9.81607 14.2044 9.5 15 9.5C15.2761 9.5 15.5 9.72386 15.5 10C15.5 10.2761 15.2761 10.5 15 10.5C14.4696 10.5 13.9609 10.7107 13.5858 11.0858C13.2107 11.4609 13 11.9696 13 12.5C13 12.7761 12.7761 13 12.5 13C12.2239 13 12 12.7761 12 12.5C12 11.7044 12.3161 10.9413 12.8787 10.3787Z" fill="black"/>
<path fill-rule="evenodd" clip-rule="evenodd" d="M0.5 10C0.5 9.72386 0.723858 9.5 1 9.5C1.39397 9.5 1.78407 9.5776 2.14805 9.72836C2.51203 9.87913 2.84274 10.1001 3.12132 10.3787C3.3999 10.6573 3.62087 10.988 3.77164 11.3519C3.9224 11.7159 4 12.106 4 12.5C4 12.7761 3.77614 13 3.5 13C3.22386 13 3 12.7761 3 12.5C3 12.2374 2.94827 11.9773 2.84776 11.7346C2.74725 11.492 2.59993 11.2715 2.41421 11.0858C2.2285 10.9001 2.00802 10.7528 1.76537 10.6522C1.52272 10.5517 1.26264 10.5 1 10.5C0.723858 10.5 0.5 10.2761 0.5 10Z" fill="black"/>
</g>
</svg>
