<svg width="18" height="18" viewBox="0 0 18 18" fill="none" xmlns="http://www.w3.org/2000/svg">
<g opacity="0.7">
<path fill-rule="evenodd" clip-rule="evenodd" d="M2.88333 5.45118C2.29423 5.45118 1.81667 5.92869 1.81667 6.51772V13.9836C1.81667 14.5726 2.29423 15.0501 2.88333 15.0501H14.6167C15.2058 15.0501 15.6833 14.5726 15.6833 13.9836V6.51772C15.6833 5.92869 15.2058 5.45118 14.6167 5.45118H2.88333ZM0.75 6.51772C0.75 5.33965 1.70513 4.38463 2.88333 4.38463H14.6167C15.7949 4.38463 16.75 5.33965 16.75 6.51772V13.9836C16.75 15.1616 15.7949 16.1167 14.6167 16.1167H2.88333C1.70513 16.1167 0.75 15.1616 0.75 13.9836V6.51772Z" fill="black"/>
<path fill-rule="evenodd" clip-rule="evenodd" d="M6.08249 3.31655C5.94104 3.31655 5.80538 3.37273 5.70536 3.47274C5.60534 3.57275 5.54915 3.70839 5.54915 3.84982V4.91637C5.54915 5.21089 5.31037 5.44965 5.01582 5.44965C4.72127 5.44965 4.48248 5.21089 4.48248 4.91637V3.84982C4.48248 3.42552 4.65106 3.0186 4.95111 2.71858C5.25117 2.41855 5.65814 2.25 6.08249 2.25H11.4158C11.8402 2.25 12.2471 2.41855 12.5472 2.71858C12.8472 3.0186 13.0158 3.42552 13.0158 3.84982V4.91637C13.0158 5.21089 12.777 5.44965 12.4825 5.44965C12.1879 5.44965 11.9492 5.21089 11.9492 4.91637V3.84982C11.9492 3.70839 11.893 3.57275 11.7929 3.47274C11.6929 3.37273 11.5573 3.31655 11.4158 3.31655H6.08249Z" fill="black"/>
<path fill-rule="evenodd" clip-rule="evenodd" d="M0.75 8.6535C0.75 8.35898 0.988781 8.12022 1.28333 8.12022H16.2167C16.5112 8.12022 16.75 8.35898 16.75 8.6535C16.75 8.94802 16.5112 9.18677 16.2167 9.18677H1.28333C0.988781 9.18677 0.75 8.94802 0.75 8.6535Z" fill="black"/>
<path fill-rule="evenodd" clip-rule="evenodd" d="M6.61725 8.12022C6.9118 8.12022 7.15058 8.35898 7.15058 8.6535V9.18677H10.3506V8.6535C10.3506 8.35898 10.5894 8.12022 10.8839 8.12022C11.1785 8.12022 11.4172 8.35898 11.4172 8.6535V9.45341C11.4172 9.66556 11.333 9.86902 11.1829 10.019C11.0329 10.169 10.8294 10.2533 10.6172 10.2533H6.88391C6.67174 10.2533 6.46826 10.169 6.31823 10.019C6.1682 9.86902 6.08391 9.66556 6.08391 9.45341V8.6535C6.08391 8.35898 6.32269 8.12022 6.61725 8.12022Z" fill="black"/>
<path fill-rule="evenodd" clip-rule="evenodd" d="M2.88333 5.45118C2.29423 5.45118 1.81667 5.92869 1.81667 6.51772V13.9836C1.81667 14.5726 2.29423 15.0501 2.88333 15.0501H14.6167C15.2058 15.0501 15.6833 14.5726 15.6833 13.9836V6.51772C15.6833 5.92869 15.2058 5.45118 14.6167 5.45118H2.88333ZM0.75 6.51772C0.75 5.33965 1.70513 4.38463 2.88333 4.38463H14.6167C15.7949 4.38463 16.75 5.33965 16.75 6.51772V13.9836C16.75 15.1616 15.7949 16.1167 14.6167 16.1167H2.88333C1.70513 16.1167 0.75 15.1616 0.75 13.9836V6.51772Z" stroke="black" stroke-width="0.2" stroke-linecap="round" stroke-linejoin="round"/>
<path fill-rule="evenodd" clip-rule="evenodd" d="M6.08249 3.31655C5.94104 3.31655 5.80538 3.37273 5.70536 3.47274C5.60534 3.57275 5.54915 3.70839 5.54915 3.84982V4.91637C5.54915 5.21089 5.31037 5.44965 5.01582 5.44965C4.72127 5.44965 4.48248 5.21089 4.48248 4.91637V3.84982C4.48248 3.42552 4.65106 3.0186 4.95111 2.71858C5.25117 2.41855 5.65814 2.25 6.08249 2.25H11.4158C11.8402 2.25 12.2471 2.41855 12.5472 2.71858C12.8472 3.0186 13.0158 3.42552 13.0158 3.84982V4.91637C13.0158 5.21089 12.777 5.44965 12.4825 5.44965C12.1879 5.44965 11.9492 5.21089 11.9492 4.91637V3.84982C11.9492 3.70839 11.893 3.57275 11.7929 3.47274C11.6929 3.37273 11.5573 3.31655 11.4158 3.31655H6.08249Z" stroke="black" stroke-width="0.2" stroke-linecap="round" stroke-linejoin="round"/>
<path fill-rule="evenodd" clip-rule="evenodd" d="M0.75 8.6535C0.75 8.35898 0.988781 8.12022 1.28333 8.12022H16.2167C16.5112 8.12022 16.75 8.35898 16.75 8.6535C16.75 8.94802 16.5112 9.18677 16.2167 9.18677H1.28333C0.988781 9.18677 0.75 8.94802 0.75 8.6535Z" stroke="black" stroke-width="0.2" stroke-linecap="round" stroke-linejoin="round"/>
<path fill-rule="evenodd" clip-rule="evenodd" d="M6.61725 8.12022C6.9118 8.12022 7.15058 8.35898 7.15058 8.6535V9.18677H10.3506V8.6535C10.3506 8.35898 10.5894 8.12022 10.8839 8.12022C11.1785 8.12022 11.4172 8.35898 11.4172 8.6535V9.45341C11.4172 9.66556 11.333 9.86902 11.1829 10.019C11.0329 10.169 10.8294 10.2533 10.6172 10.2533H6.88391C6.67174 10.2533 6.46826 10.169 6.31823 10.019C6.1682 9.86902 6.08391 9.66556 6.08391 9.45341V8.6535C6.08391 8.35898 6.32269 8.12022 6.61725 8.12022Z" stroke="black" stroke-width="0.2" stroke-linecap="round" stroke-linejoin="round"/>
</g>
</svg>
