<svg width="24" height="24" viewBox="0 0 24 24" fill="none" xmlns="http://www.w3.org/2000/svg">
<path d="M15.7499 12C14.7842 12 13.8561 11.5687 13.1249 10.7906C12.4171 10.0312 11.9811 9.01406 11.9061 7.93125C11.8264 6.77812 12.178 5.71406 12.8952 4.94063C13.6124 4.17188 14.6249 3.75 15.7499 3.75C16.8655 3.75 17.878 4.17656 18.5952 4.94531C19.3217 5.72344 19.6733 6.78281 19.5889 7.92656C19.5092 9.00938 19.078 10.0266 18.3702 10.7859C17.6436 11.5688 16.7155 12 15.7499 12ZM15.7499 5.25C15.0467 5.25 14.4233 5.50312 13.9967 5.9625C13.5561 6.43594 13.3546 7.07812 13.4061 7.82344C13.4577 8.56406 13.7483 9.25781 14.2264 9.76875C14.6671 10.2422 15.2108 10.5 15.7499 10.5C16.2936 10.5 16.8327 10.2375 17.2733 9.76875C17.7514 9.25781 18.0421 8.56875 18.0936 7.82344C18.1452 7.10156 17.9342 6.44063 17.4936 5.97188C17.0671 5.50313 16.4436 5.25 15.7499 5.25Z" fill="#FFA400"/>
<path d="M21.928 20.2508H9.57179C9.16397 20.2508 8.78897 20.068 8.54054 19.7492C8.28272 19.4164 8.18897 18.9664 8.2921 18.5398C8.68585 16.9555 9.66554 15.643 11.1187 14.7383C12.4077 13.9367 14.053 13.4961 15.7452 13.4961C17.4702 13.4961 19.0733 13.918 20.3718 14.7195C21.8296 15.6148 22.8093 16.9367 23.203 18.5398C23.3062 18.9664 23.2124 19.4164 22.9546 19.7492C22.7109 20.068 22.3358 20.2508 21.928 20.2508ZM9.7921 18.7508H21.7124C20.939 15.9852 18.0374 15.0008 15.7499 15.0008C13.4718 15.0008 10.5749 15.9852 9.7921 18.7508Z" fill="#FFA400"/>
<path d="M6.89044 12.1867C5.24044 12.1867 3.792 10.6539 3.65606 8.76953C3.58575 7.80391 3.88575 6.91328 4.49512 6.25703C5.09981 5.61016 5.94825 5.25391 6.88575 5.25391C7.81856 5.25391 8.667 5.61484 9.27169 6.26641C9.88575 6.92734 10.1857 7.81797 10.1154 8.77422C9.98887 10.6539 8.53575 12.1867 6.89044 12.1867ZM6.89044 6.74922C6.37481 6.74922 5.91544 6.93672 5.59669 7.27891C5.26856 7.63047 5.11387 8.10859 5.15606 8.66172C5.23575 9.75859 6.02794 10.6867 6.89044 10.6867C7.75294 10.6867 8.54981 9.75859 8.62481 8.66172C8.66231 8.12266 8.50294 7.63516 8.1795 7.28359C7.86075 6.93672 7.40137 6.74922 6.89044 6.74922Z" fill="#FFA400"/>
<path d="M7.21879 18.7492H1.95472C1.58441 18.7492 1.24222 18.5805 1.01254 18.2945C0.778161 17.9945 0.693786 17.582 0.787536 17.1977C1.11097 15.8898 1.91722 14.8117 3.11254 14.0711C4.16722 13.4195 5.50785 13.0586 6.88597 13.0586C8.06722 13.0586 9.07504 13.2555 9.96566 13.6633C10.3407 13.8367 10.5094 14.282 10.336 14.657C10.1625 15.032 9.71722 15.2008 9.34222 15.0273C8.65316 14.7133 7.8516 14.5586 6.89066 14.5586C5.17972 14.5586 3.01879 15.2711 2.33441 17.2539H7.21879C7.63129 17.2539 7.96879 17.5914 7.96879 18.0039C7.96879 18.4164 7.63129 18.7492 7.21879 18.7492Z" fill="#FFA400"/>
</svg>
