<svg width="18" height="18" viewBox="0 0 18 18" fill="none" xmlns="http://www.w3.org/2000/svg">
<g opacity="0.7">
<path d="M7.25323 3.1026C7.29456 2.66786 7.49648 2.26414 7.81956 1.97031C8.14264 1.67649 8.56365 1.51367 9.00036 1.51367C9.43706 1.51367 9.85808 1.67649 10.1812 1.97031C10.5042 2.26414 10.7062 2.66786 10.7475 3.1026C10.7723 3.38344 10.8645 3.65417 11.0161 3.89186C11.1677 4.12955 11.3744 4.32721 11.6186 4.46811C11.8628 4.60901 12.1373 4.689 12.419 4.70132C12.7007 4.71363 12.9812 4.6579 13.2367 4.53885C13.6336 4.35869 14.0832 4.33262 14.4982 4.46572C14.9132 4.59882 15.2639 4.88156 15.4819 5.25893C15.6999 5.6363 15.7697 6.08128 15.6777 6.50728C15.5857 6.93328 15.3385 7.30981 14.9842 7.5636C14.7535 7.72549 14.5652 7.94056 14.4352 8.19062C14.3051 8.44068 14.2373 8.71838 14.2373 9.00023C14.2373 9.28207 14.3051 9.55977 14.4352 9.80983C14.5652 10.0599 14.7535 10.275 14.9842 10.4369C15.3385 10.6906 15.5857 11.0672 15.6777 11.4932C15.7697 11.9192 15.6999 12.3642 15.4819 12.7415C15.2639 13.1189 14.9132 13.4016 14.4982 13.5347C14.0832 13.6678 13.6336 13.6418 13.2367 13.4616C12.9812 13.3426 12.7007 13.2868 12.419 13.2991C12.1373 13.3114 11.8628 13.3914 11.6186 13.5323C11.3744 13.6732 11.1677 13.8709 11.0161 14.1086C10.8645 14.3463 10.7723 14.617 10.7475 14.8979C10.7062 15.3326 10.5042 15.7363 10.1812 16.0301C9.85808 16.324 9.43706 16.4868 9.00036 16.4868C8.56365 16.4868 8.14264 16.324 7.81956 16.0301C7.49648 15.7363 7.29456 15.3326 7.25323 14.8979C7.22844 14.6169 7.13631 14.3461 6.98463 14.1083C6.83296 13.8705 6.62621 13.6728 6.38191 13.5319C6.1376 13.391 5.86294 13.311 5.58117 13.2988C5.2994 13.2865 5.01884 13.3424 4.76323 13.4616C4.3664 13.6418 3.91673 13.6678 3.50173 13.5347C3.08674 13.4016 2.73611 13.1189 2.5181 12.7415C2.30008 12.3642 2.23027 11.9192 2.32225 11.4932C2.41424 11.0672 2.66144 10.6906 3.01573 10.4369C3.24645 10.275 3.43478 10.0599 3.5648 9.80983C3.69482 9.55977 3.7627 9.28207 3.7627 9.00023C3.7627 8.71838 3.69482 8.44068 3.5648 8.19062C3.43478 7.94056 3.24645 7.72549 3.01573 7.5636C2.66193 7.30969 2.41517 6.9333 2.32341 6.50759C2.23165 6.08188 2.30144 5.63726 2.51922 5.26014C2.737 4.88302 3.08722 4.60034 3.5018 4.46703C3.91639 4.33373 4.36572 4.35933 4.76248 4.53885C5.01805 4.6579 5.29854 4.71363 5.58021 4.70132C5.86188 4.689 6.13643 4.60901 6.38064 4.46811C6.62484 4.32721 6.8315 4.12955 6.98313 3.89186C7.13476 3.65417 7.2269 3.38344 7.25173 3.1026" stroke="black" stroke-width="1.5" stroke-linecap="round" stroke-linejoin="round"/>
<path d="M9 11.25C10.2426 11.25 11.25 10.2426 11.25 9C11.25 7.75736 10.2426 6.75 9 6.75C7.75736 6.75 6.75 7.75736 6.75 9C6.75 10.2426 7.75736 11.25 9 11.25Z" stroke="black" stroke-width="1.5" stroke-linecap="round" stroke-linejoin="round"/>
</g>
</svg>
